<?xml version="1.0" encoding="UTF-8" standalone="no"?><!DOCTYPE svg PUBLIC "-//W3C//DTD SVG 1.1//EN" "http://www.w3.org/Graphics/SVG/1.1/DTD/svg11.dtd"><svg width="100%" height="100%" viewBox="0 0 800 800" version="1.1" xmlns="http://www.w3.org/2000/svg" xmlns:xlink="http://www.w3.org/1999/xlink" xml:space="preserve" xmlns:serif="http://www.serif.com/" style="fill-rule:evenodd;clip-rule:evenodd;stroke-linejoin:round;stroke-miterlimit:1.41421;"><g id="text3731"><g><path d="M26.56,392.54c0,-32.978 5.465,-66.333 16.395,-100.064c8.103,-24.875 20.635,-52.577 37.595,-83.105c12.249,-21.86 21.294,-35.286 27.136,-40.28c5.842,-4.994 12.343,-7.491 19.504,-7.491c8.292,0 15.264,2.827 20.918,8.48c5.653,5.654 8.48,12.438 8.48,20.352c0,5.465 -2.262,11.967 -6.784,19.505c-20.352,33.354 -35.193,64.636 -44.521,93.845c-9.328,29.209 -13.992,58.795 -13.992,88.758c0,30.151 4.664,59.832 13.992,89.041c9.328,29.209 24.169,60.491 44.521,93.846c4.522,7.349 6.784,13.85 6.784,19.504c0,7.914 -2.827,14.698 -8.48,20.352c-5.654,5.653 -12.626,8.48 -20.918,8.48c-6.972,0 -13.097,-2.262 -18.373,-6.784c-7.538,-6.596 -17.526,-21.389 -29.963,-44.379c-17.902,-33.355 -30.151,-60.868 -36.747,-82.539c-10.364,-33.167 -15.547,-65.674 -15.547,-97.521Z" style="fill-rule:nonzero;"/><path d="M766.868,392.54c0,32.978 -5.465,66.427 -16.394,100.347c-8.104,24.875 -20.635,52.482 -37.595,82.822c-12.249,21.86 -21.295,35.334 -27.136,40.422c-5.842,5.088 -12.344,7.632 -19.504,7.632c-8.292,0 -15.265,-2.827 -20.918,-8.48c-5.653,-5.654 -8.48,-12.438 -8.48,-20.352c0,-5.654 2.261,-12.155 6.784,-19.504c20.352,-33.355 35.192,-64.637 44.52,-93.846c9.328,-29.209 13.992,-58.89 13.992,-89.041c0,-29.963 -4.664,-59.549 -13.992,-88.758c-9.328,-29.209 -24.168,-60.491 -44.52,-93.845c-4.523,-7.538 -6.784,-14.04 -6.784,-19.505c0,-7.914 2.827,-14.698 8.48,-20.352c5.653,-5.653 12.626,-8.48 20.918,-8.48c6.972,0 13.096,2.262 18.373,6.784c7.538,6.407 17.525,21.2 29.963,44.379c17.902,33.355 30.151,60.774 36.747,82.257c10.364,33.355 15.546,65.861 15.546,97.52Z" style="fill-rule:nonzero;"/></g><path d="M452.971,331.214c0,-16.967 -6.002,-31.454 -18.008,-43.459c-12.005,-12.005 -26.491,-18.008 -43.459,-18.008c-16.967,0 -31.454,6.003 -43.459,18.008c-12.006,12.005 -18.008,26.492 -18.008,43.459c0,16.968 6.002,31.454 18.008,43.46c12.005,12.005 26.492,18.008 43.459,18.008c16.968,0 31.454,-6.003 43.459,-18.008c12.006,-12.006 18.008,-26.492 18.008,-43.46Zm61.467,0c0,17.448 -2.641,31.774 -7.923,42.979l-87.399,185.843c-2.561,5.282 -6.363,9.444 -11.405,12.485c-5.042,3.042 -10.444,4.562 -16.207,4.562c-5.763,0 -11.165,-1.52 -16.207,-4.562c-5.042,-3.041 -8.764,-7.203 -11.165,-12.485l-87.639,-185.843c-5.282,-11.205 -7.923,-25.531 -7.923,-42.979c0,-33.935 12.005,-62.908 36.016,-86.918c24.01,-24.011 52.983,-36.016 86.918,-36.016c33.935,0 62.908,12.005 86.919,36.016c24.01,24.01 36.015,52.983 36.015,86.918Z" style="fill:#0d0d0d;fill-rule:nonzero;"/></g></svg>